<svg width="51" height="45" viewBox="0 0 51 45" fill="none" xmlns="http://www.w3.org/2000/svg">
<path d="M50.7898 39.7236L47.6847 17.9877C47.5526 17.077 47.0978 16.2439 46.4031 15.6403C45.7084 15.0367 44.8201 14.7026 43.8998 14.6989H34.713C34.86 14.2947 35.0254 13.9089 35.1723 13.5046C35.6773 11.9692 35.8107 10.3358 35.5615 8.73875C35.3124 7.14171 34.6878 5.62659 33.7392 4.31788C32.7931 2.99028 31.5451 1.90645 30.098 1.15576C28.651 0.405059 27.0462 0.00896837 25.416 9.33735e-05C23.7766 -0.00689042 22.1592 0.377981 20.6987 1.12265C19.2381 1.86731 17.9766 2.95021 17.0193 4.28112C16.0707 5.58984 15.4462 7.10496 15.197 8.702C14.9479 10.299 15.0813 11.9324 15.5862 13.4679C15.7148 13.8721 15.8985 14.2579 16.0455 14.6621H6.85877C5.93847 14.6658 5.05009 14.9999 4.3554 15.6036C3.66072 16.2072 3.20592 17.0402 3.07382 17.951L0.0421944 39.7236C-0.0392053 40.2655 -0.00254107 40.8186 0.149677 41.3451C0.301896 41.8715 0.566074 42.3588 0.924123 42.7736C1.28414 43.1902 1.72994 43.5241 2.23099 43.7525C2.73204 43.9808 3.27652 44.0982 3.82714 44.0965H47.0049C47.5555 44.0982 48.1 43.9808 48.601 43.7525C49.1021 43.5241 49.5479 43.1902 49.9079 42.7736C50.266 42.3588 50.5301 41.8715 50.6824 41.3451C50.8346 40.8186 50.8712 40.2655 50.7898 39.7236V39.7236ZM19.9958 6.44919C20.6121 5.5875 21.4257 4.88597 22.3688 4.40328C23.3118 3.92059 24.3567 3.67079 25.416 3.6748C26.4908 3.65596 27.5541 3.89864 28.5143 4.38194C29.4745 4.86525 30.3029 5.57469 30.9281 6.44919C31.5409 7.28754 31.9441 8.26046 32.1039 9.28654C32.2637 10.3126 32.1756 11.3621 31.8467 12.3471C31.0922 14.631 30.152 16.8494 29.0356 18.9799C27.9999 20.9033 26.8207 22.7459 25.5079 24.492C24.1951 22.7459 23.0158 20.9033 21.9802 18.9799C20.8638 16.8494 19.9236 14.631 19.169 12.3471C18.8272 11.3692 18.7239 10.3238 18.8677 9.29796C19.0115 8.27208 19.3983 7.29539 19.9958 6.44919V6.44919ZM47.0049 40.4218H3.82714L3.68015 40.2565L6.78527 18.5022C6.78977 18.4665 6.80722 18.4337 6.83432 18.41C6.86141 18.3863 6.89626 18.3733 6.93226 18.3736H17.5338C17.9012 19.1637 18.2503 19.9354 18.6546 20.707C20.1586 23.5586 21.9501 26.249 24.0013 28.7363C24.174 28.9437 24.3903 29.1105 24.6349 29.2248C24.8794 29.3391 25.1461 29.3982 25.416 29.3977C25.6859 29.3982 25.9527 29.3391 26.1972 29.2248C26.4417 29.1105 26.658 28.9437 26.8308 28.7363C28.8819 26.249 30.6735 23.5586 32.1775 20.707C32.5817 19.9354 32.9308 19.1637 33.2983 18.3736H43.8998C43.9358 18.3733 43.9706 18.3863 43.9977 18.41C44.0248 18.4337 44.0423 18.4665 44.0468 18.5022L47.1519 40.2565L47.0049 40.4218Z" fill="#FF631B"/>
<path d="M25.4169 14.699C27.4464 14.699 29.0916 13.0538 29.0916 11.0243C29.0916 8.99483 27.4464 7.34961 25.4169 7.34961C23.3874 7.34961 21.7422 8.99483 21.7422 11.0243C21.7422 13.0538 23.3874 14.699 25.4169 14.699Z" fill="#FF631B"/>
</svg>
