<svg width="61" height="41" viewBox="0 0 61 41" fill="none" xmlns="http://www.w3.org/2000/svg">
<path d="M56.7311 0H3.69C2.7131 0.00566334 1.77782 0.396246 1.08703 1.08703C0.396249 1.77782 0.00566334 2.7131 0 3.69V37.31C0.00566334 38.2869 0.396249 39.2222 1.08703 39.913C1.77782 40.6038 2.7131 40.9943 3.69 41H56.7311C57.708 40.9943 58.6432 40.6038 59.334 39.913C60.0248 39.2222 60.4154 38.2869 60.4211 37.31V3.69C60.4154 2.7131 60.0248 1.77782 59.334 1.08703C58.6432 0.396246 57.708 0.00566334 56.7311 0ZM47.0853 15.1053C46.6401 13.846 45.8163 12.7553 44.7268 11.9827C43.6374 11.21 42.3356 10.7932 41 10.7895C39.6644 10.7932 38.3626 11.21 37.2732 11.9827C36.1837 12.7553 35.3599 13.846 34.9147 15.1053H12.6021C12.4305 15.1043 12.2622 15.0578 12.1143 14.9707C11.9665 14.8835 11.8444 14.7587 11.7605 14.6089L5.86947 4.31579H54.5516L48.6605 14.6089C48.5766 14.7587 48.4545 14.8835 48.3067 14.9707C48.1589 15.0578 47.9906 15.1043 47.819 15.1053H47.0853ZM41 19.4211C40.4277 19.4211 39.8788 19.1937 39.4741 18.789C39.0695 18.3843 38.8421 17.8355 38.8421 17.2632C38.8421 16.6908 39.0695 16.142 39.4741 15.7373C39.8788 15.3326 40.4277 15.1053 41 15.1053C41.5723 15.1053 42.1212 15.3326 42.5259 15.7373C42.9305 16.142 43.1579 16.6908 43.1579 17.2632C43.1579 17.8355 42.9305 18.3843 42.5259 18.789C42.1212 19.1937 41.5723 19.4211 41 19.4211ZM4.31579 36.6842V10.2932L8.00579 16.7668C8.47162 17.5737 9.1416 18.2437 9.94841 18.7096C10.7552 19.1755 11.6704 19.4209 12.6021 19.4211H34.9147L35.1737 20.0468L30.8579 24.3626C30.6556 24.5632 30.4951 24.8019 30.3856 25.0649C30.276 25.3278 30.2196 25.6099 30.2196 25.8947C30.2196 26.1796 30.276 26.4617 30.3856 26.7246C30.4951 26.9876 30.6556 27.2262 30.8579 27.4268C31.2598 27.8255 31.8023 28.0502 32.3684 28.0526C32.6524 28.0543 32.9339 27.9998 33.1969 27.8925C33.4598 27.7851 33.6989 27.6268 33.9005 27.4268L38.2163 23.1111C39.0861 23.5241 40.0371 23.7379 41 23.7368C41.9645 23.7311 42.9156 23.51 43.7837 23.0895L48.0995 27.4053C48.2993 27.6092 48.5377 27.7714 48.8007 27.8825C49.0636 27.9936 49.3461 28.0514 49.6316 28.0526C49.9156 28.0543 50.1971 27.9998 50.46 27.8925C50.7229 27.7851 50.9621 27.6268 51.1637 27.4268C51.3659 27.2262 51.5265 26.9876 51.636 26.7246C51.7456 26.4617 51.802 26.1796 51.802 25.8947C51.802 25.6099 51.7456 25.3278 51.636 25.0649C51.5265 24.8019 51.3659 24.5632 51.1637 24.3626L46.8479 20.0468L47.1068 19.4211H47.8405C48.7748 19.4209 49.6923 19.1732 50.4997 18.7032C51.307 18.2332 51.9754 17.5576 52.4368 16.7453L56.1268 10.2716V36.6842H4.31579Z" fill="#FF631B"/>
</svg>
