<svg width="62" height="62" viewBox="0 0 62 62" fill="none" xmlns="http://www.w3.org/2000/svg">
<path d="M55.1479 0H6.74154C4.95537 0.00582769 3.24402 0.717973 1.98099 1.98099C0.717973 3.24402 0.00582769 4.95537 0 6.74154V55.2585C0.00582769 57.0446 0.717973 58.756 1.98099 60.019C3.24402 61.282 4.95537 61.9942 6.74154 62H55.1479C56.9149 61.9654 58.598 61.2405 59.8373 59.9806C61.0766 58.7207 61.7735 57.0257 61.7789 55.2585V6.85206C61.8026 5.06572 61.1186 3.34255 59.8763 2.05877C58.6339 0.77499 56.9341 0.0348722 55.1479 0ZM24.2032 4.42068H37.4652V22.1034H24.2032V4.42068ZM57.3583 55.2585C57.3583 55.8447 57.1254 56.4069 56.7109 56.8214C56.2964 57.2359 55.7342 57.4688 55.1479 57.4688H6.74154C6.43325 57.4998 6.12186 57.4656 5.82764 57.3685C5.53341 57.2714 5.2629 57.1135 5.03363 56.905C4.80437 56.6966 4.62147 56.4423 4.49683 56.1587C4.3722 55.875 4.3086 55.5683 4.31015 55.2585V6.85206C4.29428 6.5431 4.34345 6.23421 4.45447 5.94544C4.56549 5.65667 4.73588 5.39442 4.95464 5.17566C5.17341 4.9569 5.43563 4.7865 5.7244 4.67548C6.01317 4.56447 6.32205 4.51532 6.63101 4.5312H19.7825V22.7886C19.7825 23.8086 20.1877 24.7868 20.909 25.5081C21.6302 26.2294 22.6085 26.6346 23.6285 26.6346H38.0399C39.0599 26.6346 40.0382 26.2294 40.7595 25.5081C41.4807 24.7868 41.8859 23.8086 41.8859 22.7886V4.42068H55.1479C55.4569 4.4048 55.7658 4.45398 56.0545 4.56499C56.3433 4.67601 56.6055 4.84641 56.8243 5.06517C57.0431 5.28393 57.2135 5.54615 57.3245 5.83492C57.4355 6.12369 57.4847 6.43257 57.4688 6.74154L57.3583 55.2585Z" fill="#FF631B"/>
<path d="M50.723 39.7852H39.6713C39.0851 39.7852 38.5228 40.018 38.1083 40.4325C37.6938 40.8471 37.4609 41.4093 37.4609 41.9955C37.4609 42.5817 37.6938 43.1439 38.1083 43.5584C38.5228 43.973 39.0851 44.2058 39.6713 44.2058H50.723C51.3092 44.2058 51.8714 43.973 52.2859 43.5584C52.7004 43.1439 52.9333 42.5817 52.9333 41.9955C52.9333 41.4093 52.7004 40.8471 52.2859 40.4325C51.8714 40.018 51.3092 39.7852 50.723 39.7852Z" fill="#FF631B"/>
<path d="M50.7251 48.627H33.0424C32.4562 48.627 31.8939 48.8598 31.4794 49.2743C31.0649 49.6889 30.832 50.2511 30.832 50.8373C30.832 51.4235 31.0649 51.9857 31.4794 52.4002C31.8939 52.8148 32.4562 53.0476 33.0424 53.0476H50.7251C51.3113 53.0476 51.8735 52.8148 52.288 52.4002C52.7025 51.9857 52.9354 51.4235 52.9354 50.8373C52.9354 50.2511 52.7025 49.6889 52.288 49.2743C51.8735 48.8598 51.3113 48.627 50.7251 48.627Z" fill="#FF631B"/>
<path d="M16.9319 38.2159C16.7217 38.0147 16.4738 37.8569 16.2025 37.7517C15.6644 37.5307 15.0608 37.5307 14.5226 37.7517C14.2513 37.8569 14.0034 38.0147 13.7932 38.2159L9.37255 42.6366C9.16538 42.8421 9.00095 43.0865 8.88873 43.3559C8.77652 43.6252 8.71875 43.9141 8.71875 44.2059C8.71875 44.4977 8.77652 44.7866 8.88873 45.056C9.00095 45.3253 9.16538 45.5698 9.37255 45.7753C9.57803 45.9825 9.8225 46.1469 10.0918 46.2591C10.3612 46.3713 10.6501 46.4291 10.9419 46.4291C11.2337 46.4291 11.5226 46.3713 11.792 46.2591C12.0613 46.1469 12.3058 45.9825 12.5113 45.7753L13.1522 45.1122V50.8369C13.1522 51.4232 13.3851 51.9854 13.7996 52.3999C14.2142 52.8144 14.7764 53.0473 15.3626 53.0473C15.9488 53.0473 16.511 52.8144 16.9255 52.3999C17.34 51.9854 17.5729 51.4232 17.5729 50.8369V45.1122L18.2139 45.7753C18.4204 45.9801 18.6654 46.1422 18.9347 46.2522C19.204 46.3622 19.4924 46.4179 19.7833 46.4163C20.0742 46.4179 20.3625 46.3622 20.6318 46.2522C20.9011 46.1422 21.1461 45.9801 21.3526 45.7753C21.5598 45.5698 21.7242 45.3253 21.8364 45.056C21.9486 44.7866 22.0064 44.4977 22.0064 44.2059C22.0064 43.9141 21.9486 43.6252 21.8364 43.3559C21.7242 43.0865 21.5598 42.8421 21.3526 42.6366L16.9319 38.2159Z" fill="#FF631B"/>
</svg>
