<svg width="24" height="24" viewBox="0 0 24 24" fill="none" xmlns="http://www.w3.org/2000/svg">
<path fill-rule="evenodd" clip-rule="evenodd" d="M13.5856 5.40079L12.7969 4.36064C12.3968 3.83291 11.6034 3.83291 11.2033 4.36064L10.4146 5.40079C9.95605 6.00549 9.20696 6.31577 8.45516 6.2124L7.16198 6.0346C6.50586 5.94439 5.94487 6.50537 6.03509 7.16149L6.21289 8.45468C6.31626 9.20648 6.00598 9.95556 5.40128 10.4141L4.36113 11.2028C3.8334 11.6029 3.8334 12.3963 4.36113 12.7964L5.40128 13.5851C6.00598 14.0436 6.31626 14.7927 6.21289 15.5445L6.03508 16.8377C5.94487 17.4938 6.50586 18.0548 7.16198 17.9646L8.45516 17.7868C9.20696 17.6834 9.95605 17.9937 10.4146 18.5984L11.2033 19.6386C11.6034 20.1663 12.3968 20.1663 12.7969 19.6386L13.5856 18.5984C14.0441 17.9937 14.7932 17.6834 15.545 17.7868L16.8382 17.9646C17.4943 18.0548 18.0553 17.4938 17.9651 16.8377L17.7873 15.5445C17.6839 14.7927 17.9942 14.0436 18.5989 13.5851L19.639 12.7964C20.1668 12.3963 20.1668 11.6029 19.639 11.2028L18.5989 10.4141C17.9942 9.95556 17.6839 9.20647 17.7873 8.45468L17.9651 7.16149C18.0553 6.50537 17.4943 5.94438 16.8382 6.0346L15.545 6.2124C14.7932 6.31577 14.0441 6.00549 13.5856 5.40079ZM14.3906 3.15224C13.1901 1.56904 10.8101 1.56904 9.60959 3.15224L8.82089 4.19239C8.79906 4.22119 8.76339 4.23596 8.72759 4.23104L7.4344 4.05324C5.46605 3.7826 3.78309 5.46556 4.05373 7.43391L4.23153 8.7271C4.23645 8.7629 4.22168 8.79857 4.19288 8.8204L3.15273 9.6091C1.56953 10.8096 1.56953 13.1896 3.15273 14.3901L4.19288 15.1788C4.22168 15.2006 4.23645 15.2363 4.23153 15.2721L4.05373 16.5653C3.78309 18.5336 5.46605 20.2166 7.4344 19.946L8.72759 19.7682C8.76339 19.7632 8.79906 19.778 8.82089 19.8068L9.60959 20.847C10.8101 22.4302 13.1901 22.4302 14.3906 20.847L15.1793 19.8068C15.2011 19.778 15.2368 19.7632 15.2726 19.7682L16.5658 19.946C18.5341 20.2166 20.2171 18.5336 19.9465 16.5653L19.7686 15.2721C19.7637 15.2363 19.7785 15.2006 19.8073 15.1788L20.8474 14.3901C22.4306 13.1896 22.4306 10.8096 20.8474 9.6091L19.8073 8.8204C19.7785 8.79857 19.7637 8.7629 19.7686 8.7271L19.9465 7.43391C20.2171 5.46556 18.5341 3.7826 16.5658 4.05324L15.2726 4.23104C15.2368 4.23596 15.2011 4.22119 15.1793 4.19239L14.3906 3.15224Z" fill="#fff"/>
<path d="M14.7071 10.7071L10.7071 14.7071C10.3166 15.0976 9.68342 15.0976 9.29289 14.7071C8.90237 14.3166 8.90237 13.6834 9.29289 13.2929L13.2929 9.29289C13.6834 8.90237 14.3166 8.90237 14.7071 9.29289C15.0976 9.68342 15.0976 10.3166 14.7071 10.7071Z" fill="#fff"/>
<path d="M11 10C11 10.5523 10.5523 11 10 11C9.44772 11 9 10.5523 9 10C9 9.44772 9.44772 9 10 9C10.5523 9 11 9.44772 11 10Z" fill="#fff"/>
<path d="M13 14C13 14.5523 13.4477 15 14 15C14.5523 15 15 14.5523 15 14C15 13.4477 14.5523 13 14 13C13.4477 13 13 13.4477 13 14Z" fill="#fff"/>
</svg>
