<svg width="21" height="21" viewBox="0 0 21 21" fill="none" xmlns="http://www.w3.org/2000/svg">
<path fill-rule="evenodd" clip-rule="evenodd" d="M2.00628 11.6313C2.34799 11.2896 2.90201 11.2896 3.24372 11.6313L6.125 14.5126C6.46671 14.8543 6.46671 15.4083 6.125 15.75C5.78329 16.0917 5.22927 16.0917 4.88756 15.75L2.00628 12.8687C1.66457 12.527 1.66457 11.973 2.00628 11.6313Z" fill="#fff"/>
<path d="M19.0177 4.9685C19.3455 4.61341 19.3234 4.05983 18.9683 3.73205C18.6132 3.40427 18.0596 3.42642 17.7318 3.78151L7.82531 14.5136C7.49753 14.8687 7.51968 15.4222 7.87477 15.75C8.22986 16.0778 8.78344 16.0556 9.11122 15.7005L15.1512 9.15725C15.3197 8.97466 15.6063 8.96894 15.782 9.14464L16.8811 10.2437C17.2228 10.5854 17.7768 10.5854 18.1185 10.2437C18.4602 9.90201 18.4602 9.34799 18.1185 9.00628L16.9452 7.83296C16.7792 7.66691 16.7738 7.3994 16.9331 7.22685L19.0177 4.9685Z" fill="#fff"/>
<path fill-rule="evenodd" clip-rule="evenodd" d="M5.14394 11.2684L3.60625 9.73076C2.58112 8.70563 2.58112 7.04357 3.60625 6.01845L6.89394 2.73076C7.91906 1.70563 9.58112 1.70563 10.6062 2.73076L12.1439 4.26845C13.1691 5.29357 13.1691 6.95563 12.1439 7.98076L8.85624 11.2685C7.83112 12.2936 6.16906 12.2936 5.14394 11.2684ZM4.84368 8.49332L6.38137 10.031C6.72308 10.3727 7.2771 10.3727 7.61881 10.031L10.9065 6.74332C11.2482 6.40161 11.2482 5.84759 10.9065 5.50588L9.36881 3.9682C9.0271 3.62649 8.47308 3.62649 8.13137 3.96819L4.84368 7.25589C4.50198 7.59759 4.50197 8.15161 4.84368 8.49332Z" fill="#fff"/>
<path fill-rule="evenodd" clip-rule="evenodd" d="M7 17.5C7.48325 17.5 7.875 17.1082 7.875 16.625C7.875 16.1418 7.48325 15.75 7 15.75C6.51675 15.75 6.125 16.1418 6.125 16.625C6.125 17.1082 6.51675 17.5 7 17.5ZM7 19.25C8.44975 19.25 9.625 18.0747 9.625 16.625C9.625 15.1753 8.44975 14 7 14C5.55025 14 4.375 15.1753 4.375 16.625C4.375 18.0747 5.55025 19.25 7 19.25Z" fill="#fff"/>
</svg>
