<svg width="7" height="8" viewBox="0 0 7 8" fill="none" xmlns="http://www.w3.org/2000/svg">
<path fill-rule="evenodd" clip-rule="evenodd" d="M3.85355 3.85355C3.65829 4.04882 3.34171 4.04882 3.14645 3.85355L0.146447 0.853553C-0.0488155 0.658291 -0.0488155 0.341709 0.146447 0.146447C0.341709 -0.0488156 0.658291 -0.0488156 0.853553 0.146447L3.5 2.79289L6.14645 0.146447C6.34171 -0.0488156 6.65829 -0.0488156 6.85355 0.146447C7.04882 0.341709 7.04882 0.658291 6.85355 0.853553L3.85355 3.85355Z" fill="white"/>
<path d="M6.85355 6.24996L3.85355 3.24996C3.65829 3.0547 3.34171 3.0547 3.14645 3.24996L0.146447 6.24996C-0.0488155 6.44523 -0.0488155 6.76181 0.146447 6.95707C0.341709 7.15233 0.658291 7.15233 0.853553 6.95707L3.5 4.31062L6.14645 6.95707C6.34171 7.15233 6.65829 7.15233 6.85355 6.95707C7.04882 6.76181 7.04882 6.44523 6.85355 6.24996Z" fill="white"/>
</svg>
