<svg width="13" height="13" viewBox="0 0 13 13" fill="none" xmlns="http://www.w3.org/2000/svg">
<path d="M11.4343 5.68945H0.46875V8.30035C0.46875 9.7782 1.15143 11.0948 2.21776 11.9555H0.46875V12.9999H9.8678V11.9555H8.11926C8.92539 11.3038 9.50985 10.3912 9.74749 9.34474H11.4343C12.2992 9.34474 13.0008 8.64311 13.0008 7.77824V7.25596C13.0008 6.39125 12.2992 5.68945 11.4343 5.68945ZM11.9564 7.77824C11.9564 8.06679 11.7224 8.30035 11.4343 8.30035H9.8678V6.73384H11.4343C11.7224 6.73384 11.9564 6.96835 11.9564 7.25596V7.77824Z" fill="white"/>
<path d="M0.46875 4.64616C0.46875 2.3401 2.33916 0.46875 4.64616 0.46875C4.64616 1.33362 5.3478 2.03526 6.21267 2.03526H7.2569C8.69793 2.03526 9.8678 3.20403 9.8678 4.64616H0.46875Z" fill="white"/>
</svg>
