<svg width="40" height="47" viewBox="0 0 40 47" fill="none" xmlns="http://www.w3.org/2000/svg">
<path d="M7.11864 23.0508C8.33902 26.3488 10.9393 28.9491 14.2373 30.1694C10.9393 31.3898 8.33902 33.9901 7.11864 37.2881C5.89827 33.9901 3.298 31.3898 0 30.1694C3.298 28.9491 5.89827 26.3488 7.11864 23.0508Z" fill="white"/>
<path d="M26.7799 0C29.0463 6.12486 33.8754 10.9539 40.0002 13.2203C33.8754 15.4867 29.0463 20.3158 26.7799 26.4407C24.5135 20.3158 19.6844 15.4867 13.5596 13.2203C19.6844 10.9539 24.5135 6.12486 26.7799 0Z" fill="white"/>
<path d="M16.4936 38.9831C19.5686 37.6217 22.0279 35.1624 23.3894 32.0874C24.7508 35.1624 27.2101 37.6217 30.2852 38.9831C27.2101 40.3446 24.7508 42.8039 23.3894 45.8789C22.0279 42.8039 19.5686 40.3446 16.4936 38.9831Z" stroke="white" stroke-width="0.677966"/>
</svg>
