<svg width="12" height="10" viewBox="0 0 12 10" fill="none" xmlns="http://www.w3.org/2000/svg">
<path fill-rule="evenodd" clip-rule="evenodd" d="M11.8704 0.164175C12.0074 0.315207 12.0389 0.534253 11.9501 0.717773L7.59593 9.71777C7.52579 9.86276 7.3901 9.96508 7.23141 9.99264C7.07272 10.0202 6.91047 9.96964 6.79555 9.8568L5.06335 8.1561L3.34961 9.65173C3.2065 9.77663 3.00497 9.80965 2.82949 9.73695C2.654 9.66426 2.53486 9.4984 2.52199 9.30889L2.31069 6.19698L0.246224 4.98083C0.0797703 4.88277 -0.0153014 4.6976 0.00202164 4.50519C0.0193447 4.31278 0.145963 4.14756 0.327254 4.08081L11.3273 0.030812C11.5186 -0.0396262 11.7335 0.0131424 11.8704 0.164175ZM3.34923 6.73073L3.45141 8.23561L4.34766 7.45343L3.87393 6.98831L3.34923 6.73073ZM4.91243 6.60651L6.9991 8.65524L10.0489 2.35145L4.91243 6.60651ZM8.93151 1.97851L1.66281 4.65471L3.02908 5.45956L4.09673 5.98368L8.93151 1.97851Z" fill="white"/>
</svg>
