<svg width="44" height="18" viewBox="0 0 44 18" fill="none" xmlns="http://www.w3.org/2000/svg">
<path fill-rule="evenodd" clip-rule="evenodd" d="M43.7148 8.99935C43.7149 9.99346 42.8994 10.7994 41.8934 10.7994L6.31086 10.7999L10.5909 14.9089C11.3125 15.6016 11.3292 16.7412 10.6282 17.4542C9.9273 18.1673 8.77416 18.1838 8.05262 17.4911L0.552823 10.2911C0.199772 9.95215 0.000557514 9.48643 0.00055752 9C0.000557526 8.51357 0.199772 8.04785 0.552823 7.70891L8.05262 0.508912C8.77416 -0.183779 9.9273 -0.167277 10.6282 0.545772C11.3292 1.25882 11.3125 2.3984 10.5909 3.09109L6.31101 7.19993L41.8934 7.19938C42.8993 7.19936 43.7148 8.00524 43.7148 8.99935Z" fill="white"/>
</svg>
