<svg width="9" height="11" viewBox="0 0 9 11" fill="none" xmlns="http://www.w3.org/2000/svg">
<path fill-rule="evenodd" clip-rule="evenodd" d="M6.82077 7.62223C7.52115 6.65004 8 5.58153 8 4.5C8 2.567 6.433 1 4.5 1C2.567 1 1 2.567 1 4.5C1 5.58153 1.47885 6.65004 2.17923 7.62223C2.87434 8.5871 3.72907 9.37514 4.33844 9.87424C4.4384 9.95611 4.5616 9.95611 4.66156 9.87424C5.27093 9.37514 6.12566 8.5871 6.82077 7.62223ZM5.2952 10.6479C6.58731 9.58957 9 7.24584 9 4.5C9 2.01472 6.98528 0 4.5 0C2.01472 0 0 2.01472 0 4.5C0 7.24584 2.41269 9.58957 3.7048 10.6479C4.17328 11.0316 4.82672 11.0316 5.2952 10.6479Z" fill="#FF631B"/>
<path fill-rule="evenodd" clip-rule="evenodd" d="M4.5 3.5C3.94772 3.5 3.5 3.94772 3.5 4.5C3.5 5.05228 3.94772 5.5 4.5 5.5C5.05228 5.5 5.5 5.05228 5.5 4.5C5.5 3.94772 5.05228 3.5 4.5 3.5ZM2.5 4.5C2.5 3.39543 3.39543 2.5 4.5 2.5C5.60457 2.5 6.5 3.39543 6.5 4.5C6.5 5.60457 5.60457 6.5 4.5 6.5C3.39543 6.5 2.5 5.60457 2.5 4.5Z" fill="#FF631B"/>
</svg>
