<svg width="17" height="13" viewBox="0 0 17 13" fill="none" xmlns="http://www.w3.org/2000/svg">
<path d="M7.87641 1.72158L5.09482 6.80782L3.34203 7.29401C3.54525 6.92002 3.77388 6.62083 4.0279 6.39644C4.28193 6.14711 4.57406 6.02245 4.9043 6.02245C5.64097 6.02245 6.30144 6.32164 6.88571 6.92002C7.49537 7.49347 7.8002 8.24144 7.8002 9.16395C7.8002 10.1363 7.45727 10.9716 6.77139 11.6697C6.11092 12.3678 5.28534 12.7168 4.29463 12.7168C3.35473 12.7168 2.52915 12.3802 1.81787 11.7071C1.132 11.009 0.789062 10.1612 0.789062 9.16395C0.789063 8.76503 0.865271 8.30377 1.01769 7.78019C1.19551 7.25661 1.51304 6.57096 1.97029 5.72326L5.01861 0.188232L7.87641 1.72158ZM16.4498 1.72158L13.6682 6.80782L11.9535 7.29401C12.1314 6.92002 12.3473 6.62083 12.6013 6.39644C12.8807 6.14711 13.1729 6.02245 13.4777 6.02245C14.2144 6.02245 14.8876 6.32164 15.4972 6.92002C16.1069 7.49347 16.4117 8.24144 16.4117 9.16395C16.4117 10.1363 16.0688 10.9716 15.3829 11.6697C14.7224 12.3678 13.8968 12.7168 12.9061 12.7168C11.9662 12.7168 11.1407 12.3802 10.4294 11.7071C9.74351 11.009 9.40057 10.1612 9.40057 9.16395C9.40057 8.76503 9.47678 8.30377 9.6292 7.78019C9.78161 7.25661 10.0864 6.57096 10.5437 5.72326L13.6301 0.188232L16.4498 1.72158Z" fill="#5FFFCA"/>
</svg>
