<svg width="14" height="14" viewBox="0 0 14 14" fill="none" xmlns="http://www.w3.org/2000/svg">
<path fill-rule="evenodd" clip-rule="evenodd" d="M1.33687 7.75484C1.56468 7.52703 1.93402 7.52703 2.16183 7.75484L4.08268 9.67569C4.31049 9.9035 4.31049 10.2728 4.08268 10.5007C3.85488 10.7285 3.48553 10.7285 3.25773 10.5007L1.33687 8.5798C1.10906 8.35199 1.10906 7.98264 1.33687 7.75484Z" fill="white"/>
<path d="M12.6788 3.31298C12.8973 3.07626 12.8826 2.7072 12.6458 2.48869C12.4091 2.27017 12.0401 2.28493 11.8215 2.52166L5.2172 9.67635C4.99868 9.91308 5.01344 10.2821 5.25017 10.5007C5.4869 10.7192 5.85595 10.7044 6.07447 10.4677L10.1011 6.10548C10.2135 5.98376 10.4045 5.97994 10.5217 6.09708L11.2544 6.8298C11.4822 7.0576 11.8515 7.0576 12.0793 6.8298C12.3072 6.60199 12.3072 6.23264 12.0793 6.00484L11.2971 5.22262C11.1864 5.11193 11.1829 4.93358 11.2891 4.81855L12.6788 3.31298Z" fill="white"/>
<path fill-rule="evenodd" clip-rule="evenodd" d="M3.42929 7.51295L2.40416 6.48783C1.72075 5.80441 1.72075 4.69637 2.40416 4.01295L4.59596 1.82116C5.27938 1.13774 6.38741 1.13774 7.07083 1.82116L8.09596 2.84628C8.77937 3.5297 8.77937 4.63774 8.09596 5.32116L5.90416 7.51295C5.22074 8.19637 4.11271 8.19637 3.42929 7.51295ZM3.22912 5.66287L4.25425 6.68799C4.48206 6.9158 4.8514 6.9158 5.0792 6.68799L7.271 4.4962C7.4988 4.26839 7.4988 3.89905 7.271 3.67124L6.24587 2.64612C6.01806 2.41831 5.64872 2.41831 5.42092 2.64611L3.22912 4.83791C3.00132 5.06571 3.00132 5.43506 3.22912 5.66287Z" fill="white"/>
<path fill-rule="evenodd" clip-rule="evenodd" d="M4.66602 11.6673C4.98818 11.6673 5.24935 11.4062 5.24935 11.084C5.24935 10.7618 4.98818 10.5007 4.66602 10.5007C4.34385 10.5007 4.08268 10.7618 4.08268 11.084C4.08268 11.4062 4.34385 11.6673 4.66602 11.6673ZM4.66602 12.834C5.63251 12.834 6.41602 12.0505 6.41602 11.084C6.41602 10.1175 5.63251 9.33398 4.66602 9.33398C3.69952 9.33398 2.91602 10.1175 2.91602 11.084C2.91602 12.0505 3.69952 12.834 4.66602 12.834Z" fill="white"/>
</svg>
