<svg width="12" height="5" viewBox="0 0 12 5" fill="none" xmlns="http://www.w3.org/2000/svg">
<path fill-rule="evenodd" clip-rule="evenodd" d="M0.75 2.49986C0.749996 2.72077 0.955195 2.89986 1.20832 2.89986L10.1621 2.89998L9.0851 3.81309C8.90354 3.96702 8.89934 4.22026 9.07572 4.37872C9.25209 4.53717 9.54226 4.54084 9.72383 4.38691L11.611 2.78691C11.6999 2.71159 11.75 2.60809 11.75 2.5C11.75 2.3919 11.6999 2.28841 11.611 2.21309L9.72383 0.613092C9.54226 0.45916 9.25209 0.462827 9.07572 0.621283C8.89934 0.779738 8.90354 1.03298 9.0851 1.18691L10.1621 2.09998L1.20834 2.09986C0.955209 2.09986 0.750004 2.27894 0.75 2.49986Z" fill="white"/>
</svg>
