<svg width="166" height="160" viewBox="0 0 166 160" fill="none" xmlns="http://www.w3.org/2000/svg">
<path d="M158.065 89.6131C156.8 88.1803 155.803 87.0326 154.785 85.9041C154.154 85.2048 153.488 84.5378 152.847 83.8488C152.229 83.1852 151.683 82.4612 152.568 81.6526C153.314 80.9718 154.064 81.3743 154.598 81.9701C157.281 84.9638 159.944 87.9774 162.565 91.0265C163.23 91.8005 163.023 92.6429 162.235 93.2748C161.702 93.7013 161.127 94.0779 160.557 94.4567C158.065 96.1132 155.571 97.7665 153.075 99.4165C152.933 99.5107 152.814 99.6408 152.67 99.732C152.038 100.135 151.262 100.363 150.895 99.6014C150.667 99.1277 150.755 98.1585 151.102 97.817C152.129 96.8041 153.337 95.9689 154.507 95.1084C155.447 94.4175 156.434 93.7912 157.301 92.9016C153.169 92.5433 149.403 93.5127 146.277 96.2419C144.484 97.8065 142.914 99.6561 141.404 101.508C138.7 104.825 136.258 108.363 133.44 111.576C131.127 114.204 128.601 116.635 125.888 118.846C124.344 120.107 122.358 120.969 120.436 121.599C115.855 123.1 111.933 121.476 109.513 117.299C107.932 114.568 107.335 111.555 107.213 108.441C107.031 103.777 107.769 99.23 109.061 94.7597C109.215 94.2272 109.287 93.671 109.513 92.5475C108.519 93.5419 107.879 94.0843 107.354 94.7229C102.943 100.07 98.5434 105.427 94.156 110.794C91.5507 113.97 89.074 117.266 86.2952 120.281C84.339 122.403 82.0524 124.252 79.7571 126.02C78.0553 127.347 75.9991 128.142 73.8469 128.304C69.7247 128.613 66.7066 126.67 65.3404 122.769C64.136 119.329 64.4409 115.832 65.1259 112.369C66.1984 106.949 68.4385 101.951 70.939 97.0616C71.587 95.7946 72.2333 94.5268 72.5312 92.9059C71.7603 93.3537 70.9255 93.7195 70.2287 94.2623C65.5048 97.9416 60.7446 101.579 56.1279 105.389C52.6973 108.221 49.5051 111.341 46.1293 114.242C44.4443 115.694 42.6591 117.027 40.7869 118.229C39.5636 119.009 38.2218 119.585 36.8138 119.936C33.9112 120.645 31.6092 119.434 30.8567 116.539C30.3625 114.468 30.1952 112.332 30.3608 110.209C30.682 105.104 32.4863 100.358 34.4701 95.7062C36.1139 91.8512 38.0014 88.1005 39.6456 84.2458C40.5178 82.296 41.1836 80.2603 41.6319 78.1719C42.198 75.2618 40.8408 74.0929 37.9692 74.9322C36.3331 75.4282 34.765 76.1258 33.3011 77.0088C30.8017 78.4913 28.429 80.1893 25.9744 81.7529C24.6056 82.6245 23.2424 83.5487 21.7668 84.1999C18.3946 85.6882 15.655 84.5061 14.3728 81.0313C13.8933 79.7494 13.5985 78.4058 13.4971 77.0409C12.962 69.3915 14.6347 61.7493 18.3163 55.0228C18.9969 53.8381 19.8004 52.7284 20.7135 51.712C21.2363 51.0993 22.0418 50.8335 22.759 51.494C23.5435 52.2166 23.006 52.8182 22.5321 53.4852C17.3927 60.7186 15.5907 68.853 16.4646 77.5584C16.9464 82.3528 18.6347 83.0512 22.6817 80.5148C25.6542 78.652 28.4705 76.5275 31.5101 74.7883C33.5672 73.5754 35.7838 72.6563 38.0957 72.0577C42.2452 71.0575 45.0485 73.6301 44.5015 77.8842C44.1816 80.083 43.5746 82.2303 42.696 84.2712C40.9277 88.5363 38.774 92.6447 37.079 96.9361C35.6545 100.599 34.4526 104.344 33.48 108.152C32.9945 110.014 32.9565 112.073 33.1283 114.007C33.4162 117.248 34.9417 118.054 37.8313 116.627C39.2913 115.911 40.6633 115.028 41.9199 113.995C45.0157 111.428 47.9676 108.688 51.0507 106.105C56.1664 101.819 61.3086 97.564 66.5084 93.3816C67.9659 92.2093 69.6417 91.3 71.2632 90.3451C71.9988 89.9073 72.7938 89.5783 73.6237 89.3683C75.5603 88.8969 76.9484 90.2202 76.3379 92.1066C75.7634 93.8828 74.884 95.5729 74.0255 97.2422C71.7137 101.741 69.5403 106.294 68.2922 111.221C67.5543 114.134 67.0381 117.072 67.5775 120.108C68.437 124.953 71.7206 126.824 76.1843 124.726C78.0472 123.864 79.7558 122.701 81.2419 121.285C83.8625 118.705 86.3417 115.985 88.6687 113.137C93.5687 107.194 98.3176 101.126 103.183 95.1542C104.586 93.4316 106.158 91.844 107.687 90.2273C108.391 89.4828 109.164 88.8 109.934 88.1212C110.8 87.3575 111.797 86.6941 112.939 87.3818C114.143 88.1071 113.818 89.3169 113.491 90.3911C112.893 92.3544 112.143 94.2742 111.606 96.2526C110.368 100.819 109.434 105.455 110.255 110.196C110.574 112.216 111.198 114.175 112.106 116.007C113.645 118.967 116.268 119.854 119.503 118.957C121.917 118.309 124.125 117.055 125.918 115.313C128.414 112.863 130.782 110.264 133.031 107.584C135.781 104.308 138.354 100.883 141 97.5198C145.025 92.4051 150.298 89.8651 156.795 89.8186C157.221 89.7727 157.646 89.7041 158.065 89.6131Z" fill="white"/>
</svg>
