<svg width="33" height="33" viewBox="0 0 33 33" fill="none" xmlns="http://www.w3.org/2000/svg">
<path fill-rule="evenodd" clip-rule="evenodd" d="M3.12358 18.107C3.65553 17.575 4.518 17.575 5.04996 18.107L9.5354 22.5924C10.0674 23.1244 10.0674 23.9868 9.5354 24.5188C9.00344 25.0508 8.14097 25.0508 7.60902 24.5188L3.12358 20.0334C2.59162 19.5014 2.59162 18.6389 3.12358 18.107Z" fill="#9E715D"/>
<path d="M29.6063 7.73458C30.1166 7.18178 30.0821 6.32 29.5293 5.80973C28.9765 5.29946 28.1148 5.33393 27.6045 5.88673L12.1825 22.5939C11.6723 23.1466 11.7067 24.0084 12.2595 24.5187C12.8123 25.029 13.6741 24.9945 14.1844 24.4417L23.5871 14.2554C23.8495 13.9712 24.2956 13.9623 24.5691 14.2358L26.2801 15.9468C26.8121 16.4787 27.6746 16.4787 28.2065 15.9468C28.7385 15.4148 28.7385 14.5524 28.2065 14.0204L26.3799 12.1938C26.1215 11.9353 26.1131 11.5189 26.3611 11.2503L29.6063 7.73458Z" fill="#9E715D"/>
<path fill-rule="evenodd" clip-rule="evenodd" d="M8.00769 17.5429L5.61389 15.1491C4.01803 13.5532 4.01802 10.9658 5.61389 9.36995L10.732 4.25183C12.3279 2.65596 14.9153 2.65597 16.5112 4.25183L18.9049 6.64563C20.5008 8.2415 20.5008 10.8289 18.905 12.4248L13.7868 17.5429C12.191 19.1388 9.60356 19.1388 8.00769 17.5429ZM7.54027 13.2227L9.93407 15.6165C10.466 16.1485 11.3285 16.1485 11.8605 15.6165L16.9786 10.4984C17.5105 9.96644 17.5105 9.10397 16.9786 8.57201L14.5848 6.17822C14.0528 5.64626 13.1903 5.64626 12.6584 6.17821L7.54027 11.2963C7.00832 11.8283 7.00832 12.6908 7.54027 13.2227Z" fill="#9E715D"/>
<path fill-rule="evenodd" clip-rule="evenodd" d="M10.897 27.2431C11.6493 27.2431 12.2592 26.6332 12.2592 25.8809C12.2592 25.1286 11.6493 24.5187 10.897 24.5187C10.1447 24.5187 9.53486 25.1286 9.53486 25.8809C9.53486 26.6332 10.1447 27.2431 10.897 27.2431ZM10.897 29.9674C13.1539 29.9674 14.9835 28.1378 14.9835 25.8809C14.9835 23.624 13.1539 21.7944 10.897 21.7944C8.64012 21.7944 6.81055 23.624 6.81055 25.8809C6.81055 28.1378 8.64012 29.9674 10.897 29.9674Z" fill="#9E715D"/>
</svg>
