<svg width="32" height="33" viewBox="0 0 32 33" fill="none" xmlns="http://www.w3.org/2000/svg">
<path fill-rule="evenodd" clip-rule="evenodd" d="M18.0053 7.80894L16.9601 6.43038C16.4297 5.73095 15.3782 5.73095 14.8479 6.43038L13.8026 7.80894C13.1949 8.61037 12.2021 9.02159 11.2057 8.8846L9.49183 8.64894C8.62225 8.52938 7.87875 9.27288 7.99831 10.1425L8.23396 11.8564C8.37096 12.8528 7.95973 13.8456 7.1583 14.4532L5.77975 15.4985C5.08032 16.0289 5.08032 17.0803 5.77975 17.6107L7.1583 18.656C7.95973 19.2637 8.37096 20.2565 8.23396 21.2528L7.99831 22.9668C7.87875 23.8364 8.62225 24.5798 9.49182 24.4603L11.2057 24.2246C12.2021 24.0876 13.1949 24.4989 13.8026 25.3003L14.8479 26.6789C15.3782 27.3783 16.4297 27.3783 16.9601 26.6789L18.0053 25.3003C18.613 24.4989 19.6058 24.0876 20.6022 24.2246L22.3161 24.4603C23.1857 24.5798 23.9292 23.8363 23.8097 22.9668L23.574 21.2528C23.437 20.2565 23.8482 19.2637 24.6497 18.656L26.0282 17.6107C26.7276 17.0803 26.7276 16.0289 26.0282 15.4985L24.6497 14.4532C23.8482 13.8456 23.437 12.8528 23.574 11.8564L23.8097 10.1425C23.9292 9.27288 23.1857 8.52938 22.3161 8.64894L20.6022 8.8846C19.6058 9.02159 18.613 8.61036 18.0053 7.80894ZM19.0722 4.82884C17.4812 2.73056 14.3268 2.73056 12.7358 4.82884L11.6905 6.20739C11.6615 6.24556 11.6142 6.26514 11.5668 6.25862L9.85288 6.02296C7.24415 5.66428 5.01364 7.89478 5.37233 10.5035L5.60798 12.2174C5.61451 12.2649 5.59492 12.3122 5.55676 12.3411L4.1782 13.3864C2.07992 14.9774 2.07992 18.1318 4.1782 19.7228L5.55676 20.7681C5.59492 20.7971 5.61451 20.8443 5.60798 20.8918L5.37233 22.6057C5.01364 25.2145 7.24414 27.445 9.85288 27.0863L11.5668 26.8506C11.6142 26.8441 11.6615 26.8637 11.6905 26.9018L12.7358 28.2804C14.3268 30.3787 17.4812 30.3787 19.0722 28.2804L20.1175 26.9018C20.1464 26.8637 20.1937 26.8441 20.2412 26.8506L21.9551 27.0863C24.5638 27.445 26.7943 25.2144 26.4356 22.6057L26.2 20.8918C26.1935 20.8443 26.213 20.7971 26.2512 20.7681L27.6298 19.7228C29.728 18.1318 29.728 14.9774 27.6298 13.3864L26.2512 12.3411C26.213 12.3122 26.1935 12.2649 26.2 12.2174L26.4356 10.5035C26.7943 7.89478 24.5638 5.66428 21.9551 6.02296L20.2412 6.25862C20.1937 6.26514 20.1464 6.24556 20.1175 6.20739L19.0722 4.82884Z" fill="#9E715D"/>
<path d="M19.4916 14.8411L14.1902 20.1425C13.6727 20.6601 12.8335 20.6601 12.3159 20.1425C11.7983 19.6249 11.7983 18.7857 12.3159 18.2682L17.6173 12.9668C18.1349 12.4492 18.974 12.4492 19.4916 12.9668C20.0092 13.4844 20.0092 14.3235 19.4916 14.8411Z" fill="#9E715D"/>
<path d="M14.5784 13.904C14.5784 14.6359 13.985 15.2293 13.2531 15.2293C12.5211 15.2293 11.9277 14.6359 11.9277 13.904C11.9277 13.172 12.5211 12.5786 13.2531 12.5786C13.985 12.5786 14.5784 13.172 14.5784 13.904Z" fill="#9E715D"/>
<path d="M17.2291 19.2053C17.2291 19.9373 17.8225 20.5307 18.5544 20.5307C19.2864 20.5307 19.8798 19.9373 19.8798 19.2053C19.8798 18.4734 19.2864 17.88 18.5544 17.88C17.8225 17.88 17.2291 18.4734 17.2291 19.2053Z" fill="#9E715D"/>
</svg>
