<svg width="32" height="33" viewBox="0 0 32 33" fill="none" xmlns="http://www.w3.org/2000/svg">
<path fill-rule="evenodd" clip-rule="evenodd" d="M3.97656 16.4381C3.97656 15.7062 4.56994 15.1128 5.30191 15.1128H26.5074C27.2394 15.1128 27.8327 15.7062 27.8327 16.4381V23.0648C27.8327 25.9927 25.4592 28.3662 22.5314 28.3662H9.27793C6.35007 28.3662 3.97656 25.9927 3.97656 23.0648V16.4381ZM7.28992 17.7635C6.92394 17.7635 6.62725 18.0602 6.62725 18.4261V23.0648C6.62725 24.5288 7.814 25.7155 9.27793 25.7155H22.5314C23.9953 25.7155 25.182 24.5288 25.182 23.0648V18.4261C25.182 18.0602 24.8854 17.7635 24.5194 17.7635H7.28992Z" fill="#9E715D"/>
<path fill-rule="evenodd" clip-rule="evenodd" d="M25.1812 11.1368H6.62642C5.89445 11.1368 5.30108 11.7301 5.30108 12.4621V13.7875C5.30108 14.5194 5.89445 15.1128 6.62642 15.1128H25.1812C25.9132 15.1128 26.5066 14.5194 26.5066 13.7875V12.4621C26.5066 11.7301 25.9132 11.1368 25.1812 11.1368ZM6.62642 8.48608C4.43052 8.48608 2.65039 10.2662 2.65039 12.4621V13.7875C2.65039 15.9834 4.43052 17.7635 6.62642 17.7635H25.1812C27.3771 17.7635 29.1572 15.9834 29.1572 13.7875V12.4621C29.1572 10.2662 27.3771 8.48608 25.1812 8.48608H6.62642Z" fill="#9E715D"/>
<path d="M14.5781 8.48608H17.2288V28.3662H14.5781V8.48608Z" fill="#9E715D"/>
<path fill-rule="evenodd" clip-rule="evenodd" d="M13.2534 11.1369C11.0575 11.1369 9.27734 9.35674 9.27734 7.16084C9.27734 4.96494 11.0575 3.18481 13.2534 3.18481C14.2717 3.18481 15.2006 3.56764 15.9041 4.19724C16.6075 3.56764 17.5364 3.18481 18.5547 3.18481C20.7506 3.18481 22.5308 4.96494 22.5308 7.16084C22.5308 9.35674 20.7506 11.1369 18.5547 11.1369H13.2534ZM13.2534 5.8355C13.9853 5.8355 14.5787 6.42888 14.5787 7.16084V8.48618H13.2534C12.5214 8.48618 11.928 7.89281 11.928 7.16084C11.928 6.42888 12.5214 5.8355 13.2534 5.8355ZM17.2294 8.48618H18.5547C19.2867 8.48618 19.8801 7.89281 19.8801 7.16084C19.8801 6.42888 19.2867 5.8355 18.5547 5.8355C17.8228 5.8355 17.2294 6.42888 17.2294 7.16084V8.48618Z" fill="#9E715D"/>
</svg>
