<svg width="10" height="10" viewBox="0 0 10 10" fill="none" xmlns="http://www.w3.org/2000/svg">
<path d="M0.138444 3.47309C0.170716 3.37373 0.256593 3.30133 0.359959 3.28631L3.26376 2.86434L4.5624 0.233042C4.60863 0.139372 4.70402 0.0800781 4.80848 0.0800781C4.91293 0.0800781 5.00834 0.13939 5.05457 0.233042L6.35328 2.86436L9.25703 3.28631C9.36039 3.30133 9.44627 3.37374 9.47854 3.47309C9.51083 3.57243 9.4839 3.68148 9.40911 3.75439L7.30798 5.80259L7.80392 8.6947C7.82157 8.79765 7.77924 8.90171 7.69474 8.96309C7.61025 9.02447 7.49825 9.03257 7.40573 8.98398L4.8085 7.61852L2.21134 8.984C2.17119 9.00511 2.12735 9.01552 2.08366 9.01552C2.02677 9.01552 1.97013 8.99785 1.92234 8.96311C1.83784 8.90171 1.7955 8.79767 1.81316 8.6947L2.30924 5.80259L0.207891 3.75441C0.133084 3.68148 0.106154 3.57243 0.138444 3.47309ZM2.79565 5.51026C2.86034 5.5733 2.88986 5.66415 2.87457 5.75318L2.4481 8.23942L4.68077 7.06558C4.76072 7.02356 4.85623 7.02356 4.93618 7.06558L7.16898 8.23944L6.74263 5.75316C6.72738 5.66414 6.75689 5.57332 6.82154 5.51028L8.62781 3.7495L6.13157 3.38673C6.04218 3.37374 5.96494 3.31762 5.92495 3.23662L4.8085 0.974534L3.69209 3.23661C3.6521 3.3176 3.57486 3.37374 3.48547 3.38673L0.989192 3.74948L2.79565 5.51026Z" fill="white"/>
<path d="M3.45007 2.96208L4.48633 1.14863C4.62665 0.903067 4.98225 0.907548 5.11634 1.15657L5.99398 2.78648C6.04204 2.87573 6.12547 2.94061 6.22381 2.96519L8.39474 3.50793C8.65245 3.57235 8.75419 3.88401 8.58413 4.08808L7.25036 5.68861C7.18649 5.76525 7.15726 5.86494 7.16963 5.96393L7.42965 8.04409C7.4648 8.32526 7.17659 8.53507 6.91981 8.41525L4.96084 7.50106C4.86427 7.45599 4.7527 7.45599 4.65614 7.50106L2.74221 8.39422C2.47641 8.51826 2.1817 8.28965 2.23576 8.00136L2.61185 5.99552C2.63377 5.87864 2.59659 5.75847 2.5125 5.67438L0.968233 4.13011C0.763374 3.92525 0.871836 3.57465 1.15659 3.52126L3.20366 3.13743C3.30754 3.11796 3.39763 3.05385 3.45007 2.96208Z" fill="white"/>
</svg>
