<svg width="9" height="8" viewBox="0 0 9 8" fill="none" xmlns="http://www.w3.org/2000/svg">
<path fill-rule="evenodd" clip-rule="evenodd" d="M4.43337 2.01616C4.20491 2.37857 4.12779 2.80371 4.12779 3.0055C4.12779 3.13844 4.0614 3.26273 3.95057 3.33727C3.83974 3.4118 3.69891 3.42687 3.57464 3.37749C3.49337 3.3452 3.40282 3.31237 3.30491 3.27687C3.05126 3.18491 2.74822 3.07504 2.42914 2.91023C2.10509 2.74284 1.75197 2.51552 1.35201 2.17798C1.35697 2.32866 1.39048 2.46666 1.44679 2.59455C1.57823 2.89311 1.85694 3.18829 2.31847 3.46319C2.44474 3.53841 2.51972 3.67599 2.51409 3.82213C2.50846 3.96827 2.42311 4.09976 2.29142 4.16516L2.29098 4.16538L2.2905 4.16562L2.28942 4.16615L2.28681 4.16742L2.27977 4.17079C2.27428 4.17339 2.26718 4.17668 2.25854 4.18056C2.24125 4.18831 2.21772 4.19844 2.18836 4.21011C2.12969 4.23342 2.04733 4.26304 1.94454 4.29221C1.83644 4.32289 1.70482 4.35333 1.55371 4.37527C1.63994 4.67941 1.83211 4.86925 2.0392 5.01265C2.16097 5.09698 2.27878 5.15905 2.39718 5.22143C2.42663 5.23694 2.45612 5.25248 2.48572 5.26838C2.55038 5.30313 2.63539 5.35009 2.70569 5.40595C2.75995 5.44906 2.91774 5.58292 2.91774 5.81008C2.91774 5.95533 2.85142 6.06853 2.80944 6.12902C2.76033 6.1998 2.69834 6.26367 2.63344 6.31951C2.5025 6.43217 2.32674 6.54042 2.11835 6.6291C1.87841 6.73121 1.58548 6.81151 1.25063 6.84043C1.27806 6.85504 1.30722 6.869 1.33814 6.88231C1.63173 7.00868 2.06108 7.0604 2.57832 7.01369C3.6038 6.9211 4.82037 6.45626 5.65654 5.72753C6.29754 4.99211 6.56902 4.26446 6.68201 3.72517C6.73916 3.45238 6.75583 3.22721 6.75858 3.0735C6.75995 2.99672 6.75784 2.93805 6.75564 2.90051C6.75454 2.88175 6.75341 2.86831 6.75269 2.86056L6.75196 2.85328C6.74009 2.75539 6.76495 2.65636 6.82187 2.57553L6.75207 2.85417L6.75216 2.85486L6.82187 2.57553L7.56383 2.91526C7.55769 2.92458 7.56939 2.90692 7.56383 2.91526C7.56383 2.91526 7.56634 3.02097 7.56515 3.08773C7.56163 3.2846 7.54055 3.56025 7.47179 3.88844C7.33393 4.54644 7.00466 5.41344 6.24706 6.27413C6.2359 6.2868 6.22396 6.29876 6.21129 6.30994C5.23181 7.17426 3.83677 7.70468 2.65134 7.81172C2.05923 7.86518 1.48014 7.81673 1.01741 7.61757C0.538258 7.41133 0.168695 7.03154 0.0968684 6.46076C0.0810709 6.33523 0.125891 6.20966 0.217769 6.12204C0.309646 6.03443 0.437785 5.99506 0.563415 6.01586C1.08815 6.10274 1.51452 6.01431 1.80068 5.89254C1.82921 5.8804 1.88125 5.85565 1.88125 5.85565C1.88125 5.85565 1.68181 5.74199 1.57785 5.66999C1.15223 5.37525 0.699308 4.87709 0.699308 4.00713C0.699308 3.78586 0.879894 3.60648 1.10266 3.60648C1.13199 3.60648 1.16075 3.60593 1.18892 3.60488C0.983432 3.39832 0.819354 3.16929 0.707673 2.91562C0.481256 2.40134 0.493089 1.83782 0.728157 1.25407C0.778511 1.12903 0.888744 1.03748 1.02156 1.0104C1.15437 0.983319 1.292 1.02433 1.38787 1.11957C1.96761 1.69543 2.42225 2.00349 2.80131 2.19929C3.01908 2.31177 3.20582 2.38589 3.3926 2.45471C3.45735 2.18167 3.57049 1.8751 3.74964 1.5909C4.08056 1.06595 4.65155 0.601562 5.53952 0.601562C6.09034 0.601562 6.44477 0.871195 6.66795 1.05599C6.69484 1.07826 6.71817 1.09774 6.73866 1.11485C6.79026 1.15794 6.82389 1.18603 6.85132 1.2059C7.03468 1.11957 7.20024 1.05908 7.34746 1.03121C7.50396 1.00159 7.72949 0.992504 7.9152 1.14019C8.1106 1.29559 8.13322 1.51912 8.12651 1.65151C8.11949 1.79006 8.07796 1.92882 8.0343 2.04443C7.9451 2.28059 7.80319 2.53161 7.69255 2.71262C7.64408 2.7919 7.59932 2.86144 7.56383 2.91526C7.5709 3.00273 7.56306 2.90701 7.56383 2.91526L6.82187 2.57553L6.82233 2.57487L6.82465 2.57155L6.83469 2.55702C6.84366 2.54396 6.85696 2.52442 6.87354 2.49954C6.90677 2.44967 6.9527 2.37902 7.003 2.29673C7.07448 2.1798 7.14908 2.04853 7.20888 1.92436C7.18461 1.93565 7.1589 1.94801 7.13168 1.96153C7.12621 1.96425 7.12069 1.96684 7.11511 1.96931C6.86832 2.07829 6.64597 2.01441 6.48987 1.9266C6.38209 1.86598 6.27206 1.77312 6.19263 1.70608C6.17775 1.69352 6.16394 1.68187 6.15142 1.6715C5.96255 1.51511 5.7954 1.40287 5.53952 1.40287C4.98622 1.40287 4.64967 1.67302 4.43337 2.01616Z" fill="#3A1C36"/>
</svg>
