<svg width="52" height="52" viewBox="0 0 52 52" fill="none" xmlns="http://www.w3.org/2000/svg">
<path fill-rule="evenodd" clip-rule="evenodd" d="M23.4707 33.8018C24.9056 33.7477 26.1128 34.867 26.1669 36.3019C26.2891 39.5368 26.4606 41.8978 26.6292 43.5906C26.7953 45.2577 27.8017 46.2608 29.2046 46.4323C30.8589 46.6345 33.1925 46.8 36.3948 46.8C39.5972 46.8 41.9308 46.6345 43.585 46.4323C44.9872 46.2609 45.9942 45.2573 46.1603 43.5898C46.4733 40.4477 46.7948 35.0189 46.7948 26C46.7948 16.9811 46.4733 11.5523 46.1603 8.41016C45.9942 6.74266 44.9872 5.73915 43.585 5.56773C41.9308 5.36551 39.5972 5.2 36.3948 5.2C33.1925 5.2 30.8589 5.3655 29.2046 5.56771C27.8017 5.73921 26.7953 6.74227 26.6292 8.40937C26.4606 10.1022 26.2891 12.4632 26.1669 15.6981C26.1128 17.133 24.9056 18.2523 23.4707 18.1982C22.0358 18.144 20.9165 16.9368 20.9706 15.5019C21.096 12.1816 21.2737 9.71211 21.4548 7.8939C21.8356 4.07146 24.5006 0.904027 28.5737 0.406138C30.4696 0.174374 33.0169 1.38071e-06 36.3948 1.23306e-06C39.7728 1.0854e-06 42.3201 0.174383 44.216 0.406162C48.2894 0.90412 50.954 4.07303 51.3347 7.89471C51.6699 11.2598 51.9948 16.87 51.9948 26C51.9948 35.13 51.6699 40.7402 51.3347 44.1053C50.954 47.927 48.2894 51.0959 44.216 51.5938C42.3201 51.8256 39.7728 52 36.3948 52C33.0169 52 30.4696 51.8256 28.5737 51.5939C24.5006 51.096 21.8356 47.9285 21.4548 44.1061C21.2737 42.2879 21.096 39.8184 20.9706 36.4981C20.9165 35.0631 22.0358 33.856 23.4707 33.8018Z" fill="#fff"/>
<path fill-rule="evenodd" clip-rule="evenodd" d="M13.5385 33.2643C14.5538 34.2796 14.5538 35.9258 13.5385 36.9412C12.5231 37.9566 10.8769 37.9566 9.86152 36.9412L0.761522 27.8412C-0.253841 26.8258 -0.253841 25.1796 0.761522 24.1643L9.86152 15.0643C10.8769 14.0489 12.5231 14.0489 13.5385 15.0643C14.5538 16.0796 14.5538 17.7258 13.5385 18.7412L8.87695 23.4027H33.8C35.2359 23.4027 36.4 24.5668 36.4 26.0027C36.4 27.4387 35.2359 28.6027 33.8 28.6027L8.87696 28.6027L13.5385 33.2643Z" fill="#fff"/>
</svg>
